<?xml version="1.0" encoding="UTF-8" standalone="no"?>
<!DOCTYPE svg PUBLIC "-//W3C//DTD SVG 1.1//EN" "http://www.w3.org/Graphics/SVG/1.1/DTD/svg11.dtd">
<svg width="100%" height="100%" viewBox="0 0 338 161" version="1.1" xmlns="http://www.w3.org/2000/svg" xmlns:xlink="http://www.w3.org/1999/xlink" xml:space="preserve" xmlns:serif="http://www.serif.com/" style="fill-rule:evenodd;clip-rule:evenodd;stroke-linejoin:round;stroke-miterlimit:2;">
    <g transform="matrix(1,0,0,1,-119.063,-165.226)">
        <g transform="matrix(1,0,0,0.593502,3.98559,95.1555)">
            <rect x="206.776" y="291.572" width="3.043" height="97.675" style="fill:white;"/>
            <rect x="206.776" y="291.572" width="3.043" height="97.675" style="fill:rgb(0,55,135);"/>
        </g>
        <g transform="matrix(1,0,0,1,-3.71794,-153.905)">
            <path d="M309.221,347.998C309.221,332.066 296.286,319.131 280.355,319.131L151.647,319.131C135.715,319.131 122.781,332.066 122.781,347.998L122.781,405.73C122.781,421.662 135.715,434.596 151.647,434.596L280.355,434.596C296.286,434.596 309.221,421.662 309.221,405.73L309.221,347.998Z" style="fill:rgb(13,110,253);"/>
            <path d="M309.221,347.998C309.221,332.066 296.286,319.131 280.355,319.131L151.647,319.131C135.715,319.131 122.781,332.066 122.781,347.998L122.781,405.73C122.781,421.662 135.715,434.596 151.647,434.596L280.355,434.596C296.286,434.596 309.221,421.662 309.221,405.73L309.221,347.998ZM305.054,347.998L305.054,405.73C305.054,419.362 293.987,430.43 280.355,430.43L151.647,430.43C138.015,430.43 126.948,419.362 126.948,405.73C126.948,405.73 126.948,347.998 126.948,347.998C126.948,334.366 138.015,323.298 151.647,323.298C151.647,323.298 280.355,323.298 280.355,323.298C293.987,323.298 305.054,334.366 305.054,347.998Z" style="fill:rgb(13,110,253);"/>
        </g>
        <g transform="matrix(1,0,0,0.593502,176.864,95.1555)">
            <rect x="206.776" y="291.572" width="3.043" height="97.675" style="fill:white;"/>
            <rect x="206.776" y="291.572" width="3.043" height="97.675" style="fill:rgb(0,55,135);"/>
        </g>
        <g transform="matrix(1,0,0,1,-36.0625,-144.631)">
            <path d="M492.801,356.736C492.801,344.118 482.557,333.874 469.939,333.874L372.509,333.874C359.891,333.874 349.647,344.118 349.647,356.736L349.647,402.46C349.647,415.078 359.891,425.322 372.509,425.322L469.939,425.322C482.557,425.322 492.801,415.078 492.801,402.46L492.801,356.736Z" style="fill:rgb(13,110,253);"/>
            <path d="M492.801,356.736C492.801,344.118 482.557,333.874 469.939,333.874L372.509,333.874C359.891,333.874 349.647,344.118 349.647,356.736L349.647,402.46C349.647,415.078 359.891,425.322 372.509,425.322L469.939,425.322C482.557,425.322 492.801,415.078 492.801,402.46L492.801,356.736ZM488.635,356.736L488.635,402.46C488.635,412.779 480.257,421.156 469.939,421.156L372.509,421.156C362.191,421.156 353.814,412.779 353.814,402.46C353.814,402.46 353.814,356.736 353.814,356.736C353.814,346.418 362.191,338.041 372.509,338.041L469.939,338.041C480.257,338.041 488.635,346.418 488.635,356.736Z" style="fill:rgb(13,110,253);"/>
        </g>
        <g transform="matrix(1,0,0,1,-30.66,-156.274)">
            <text x="179.651px" y="397.128px" style="font-family:'ArialMT', 'Arial', sans-serif;font-size:50px;fill:white;">JASD</text>
        </g>
        <g transform="matrix(1,0,0,1,82.7543,-280.996)">
            <text x="286.465px" y="528.597px" style="font-family:'ArialMT', 'Arial', sans-serif;font-size:50px;fill:white;">js</text>
        </g>
        <g transform="matrix(0.759172,0,0,0.504136,51.2374,160.657)">
            <rect x="212.755" y="281.608" width="199.812" height="9.4" style="fill:white;"/>
            <rect x="212.755" y="281.608" width="199.812" height="9.4" style="fill:rgb(0,55,135);"/>
        </g>
        <g transform="matrix(8.06957e-17,1.31786,-0.775116,4.74622e-17,606.37,-145.049)">
            <path d="M341.496,287.479L350.61,319.983L332.382,319.983L341.496,287.479Z" style="fill:rgb(0,55,135);"/>
            <path d="M341.496,287.479L350.61,319.983L332.382,319.983L341.496,287.479ZM341.496,299.97L345.6,314.607C345.6,314.607 337.392,314.607 337.392,314.607L341.496,299.97Z" style="fill:rgb(0,55,135);"/>
        </g>
    </g>
</svg>
